<svg id="レイヤー_1" data-name="レイヤー 1" xmlns="http://www.w3.org/2000/svg" viewBox="0 0 183.2 61.42"><defs><style>.cls-1{fill:#fff;}.cls-2{isolation:isolate;}</style></defs><title>zo_members</title><polygon id="Fill-1" class="cls-1" points="0 28.9 19.5 38.9 19.5 28.9 0 18.8 0 28.9"/><polygon id="Fill-2" class="cls-1" points="17 10.1 17 11.3 14.6 11.3 14.6 12.6 12.2 12.6 12.2 13.8 9.7 13.8 9.7 15.1 7.3 15.1 7.3 16.3 4.9 16.3 4.9 17.6 2.4 17.6 2.4 18.8 0 18.8 0 28.9 2.4 28.9 2.4 27.6 4.9 27.6 4.9 26.4 7.3 26.4 7.3 25.1 9.7 25.1 9.7 23.9 12.2 23.9 12.2 22.6 14.6 22.6 14.6 21.3 17 21.3 17 20.1 19.5 20.1 19.5 10.1 17 10.1"/><polygon id="Fill-3" class="cls-1" points="0 0 0 10.1 19.5 20.1 19.5 10.1 0 0"/><polygon id="Fill-4" class="cls-1" points="31.8 10.3 41.6 10.3 31.4 29.9 31.4 34.5 47.4 34.5 47.4 29.9 37.2 29.9 47.4 10.3 47.4 5.8 31.8 5.8 31.8 10.3"/><path id="Fill-7" class="cls-1" d="M88.3,5.8V27.2a3.48,3.48,0,0,1-3.7,3.2,3.42,3.42,0,0,1-3.7-3.2V5.8H75.6V27.4c0,4.3,4.1,7.8,9.1,7.8s9.1-3.5,9.1-7.8V5.8Z"/><path id="Fill-9" class="cls-1" d="M113.9,29.1h0c0,1.4-1.5,2.6-3.3,2.6s-3.3-1.2-3.3-2.6V21c0-1.4,1.5-2.6,3.3-2.6s3.3,1.2,3.3,2.6Zm-3.4-13.9c-3.8,0-6.9,2.7-6.9,5.9V29c0,3.3,3.1,5.9,7,5.9s6.9-2.7,6.9-6V21c-.1-3.2-3.1-5.8-7-5.8Z"/><path id="Fill-11" class="cls-1" d="M147.2,5.8a1.67,1.67,0,0,0-1.8,1.5v2.9a1.76,1.76,0,0,0,2.1,1.5,1.7,1.7,0,0,0,1.5-1.5V7.3a1.83,1.83,0,0,0-1.8-1.5"/><path id="Fill-13" class="cls-1" d="M127.3,15.2a7.63,7.63,0,0,0-4.2,1.2l-2.7-.6V34.4H124V21c0-1.4,1.5-2.6,3.3-2.6s3.3,1.2,3.3,2.6V34.5h3.6V21.1c0-3.3-3.1-5.9-6.9-5.9"/><path id="Fill-15" class="cls-1" d="M159.4,15.2a7.63,7.63,0,0,0-4.2,1.2l-2.7-.6V34.4h3.6V21c0-1.4,1.5-2.6,3.3-2.6s3.3,1.2,3.3,2.6V34.5h3.6V21.1c.1-3.3-3-5.9-6.9-5.9"/><polygon id="Fill-17" class="cls-1" points="137.9 34.5 141.5 34.5 141.5 5.8 137.9 5.8 137.9 34.5"/><polygon id="Fill-19" class="cls-1" points="145.4 34.5 149 34.5 149 15.8 145.4 15.8 145.4 34.5"/><path id="Fill-20" class="cls-1" d="M172.9,22.7V21c0-1.4,1.5-2.6,3.3-2.6s3.3,1.2,3.3,2.6v1.7Zm10.3-1.6c0-3.3-3.1-5.9-7-5.9s-7,2.7-7,5.9V29c0,3.3,3.1,5.9,7,5.9s6.9-2.7,6.9-5.9v-.3l-3.6-.7v1.1c0,1.4-1.5,2.6-3.3,2.6s-3.3-1.2-3.3-2.6V25.7h10.3Z"/><path id="Fill-7-2" data-name="Fill-7" class="cls-1" d="M65.2,5.8V27.2a3.48,3.48,0,0,1-3.7,3.2,3.42,3.42,0,0,1-3.7-3.2V5.8H52.5V27.4c0,4.3,4.1,7.8,9.1,7.8s9.1-3.5,9.1-7.8V5.8Z"/><g class="cls-2"><path class="cls-1" d="M35.15,60.73l3.17-16.21L43.5,56.23l5.36-11.71,2.85,16.21H49.38l-1.46-9.1-4.46,9.79-4.34-9.8L37.5,60.73Z"/><path class="cls-1" d="M68.15,56.49H61.33a2.87,2.87,0,0,0,.76,1.86,2.32,2.32,0,0,0,1.73.69,2.26,2.26,0,0,0,1.36-.39,5.69,5.69,0,0,0,1.2-1.45l1.86,1a7.91,7.91,0,0,1-.91,1.25,4.57,4.57,0,0,1-1,.86,3.83,3.83,0,0,1-1.18.49,5.45,5.45,0,0,1-1.38.16,4.45,4.45,0,0,1-3.41-1.37A5.1,5.1,0,0,1,59,56a5.24,5.24,0,0,1,1.25-3.65,4.76,4.76,0,0,1,6.66,0A5.28,5.28,0,0,1,68.16,56Zm-2.26-1.8a2.1,2.1,0,0,0-2.21-1.76,2.28,2.28,0,0,0-1.4.48,2.17,2.17,0,0,0-.49.55,2.4,2.4,0,0,0-.31.73Z"/><path class="cls-1" d="M75.55,51.22h2.2v.87a4.36,4.36,0,0,1,1.08-.89A2.54,2.54,0,0,1,80,51a2.9,2.9,0,0,1,2.55,1.41A3.3,3.3,0,0,1,85.38,51q3.23,0,3.22,3.9v5.88H86.39V55.44a4.09,4.09,0,0,0-.33-1.93,1.22,1.22,0,0,0-1.13-.58,1.43,1.43,0,0,0-1.32.69,4.46,4.46,0,0,0-.41,2.19v4.92H81V55.47c0-1.69-.49-2.54-1.47-2.54a1.49,1.49,0,0,0-1.35.7,4.34,4.34,0,0,0-.42,2.18v4.92h-2.2Z"/><path class="cls-1" d="M98.57,44.23v8.09a4.06,4.06,0,0,1,3-1.37,4.1,4.1,0,0,1,3.2,1.44A5.13,5.13,0,0,1,106,55.94a5.2,5.2,0,0,1-1.29,3.63A4.15,4.15,0,0,1,101.52,61a4.09,4.09,0,0,1-3-1.27v1h-2.2V44.23ZM103.79,56a3.28,3.28,0,0,0-.74-2.23,2.39,2.39,0,0,0-1.88-.88,2.56,2.56,0,0,0-2,.85A3.16,3.16,0,0,0,98.44,56a3.23,3.23,0,0,0,.74,2.22,2.51,2.51,0,0,0,2,.85,2.43,2.43,0,0,0,1.89-.85A3.12,3.12,0,0,0,103.79,56Z"/><path class="cls-1" d="M122,56.49h-6.81a2.87,2.87,0,0,0,.76,1.86,2.32,2.32,0,0,0,1.73.69,2.26,2.26,0,0,0,1.36-.39,5.69,5.69,0,0,0,1.2-1.45l1.85,1a7.33,7.33,0,0,1-.91,1.25,4.53,4.53,0,0,1-1,.86,3.93,3.93,0,0,1-1.18.49,5.5,5.5,0,0,1-1.38.16,4.49,4.49,0,0,1-3.42-1.37A5.1,5.1,0,0,1,112.91,56a5.28,5.28,0,0,1,1.25-3.65,4.76,4.76,0,0,1,6.66,0A5.23,5.23,0,0,1,122,56Zm-2.25-1.8a2.12,2.12,0,0,0-2.22-1.76,2.08,2.08,0,0,0-.75.13,2.15,2.15,0,0,0-1.13.9,2.69,2.69,0,0,0-.32.73Z"/><path class="cls-1" d="M129.43,51.22h2.19v.84a4.22,4.22,0,0,1,1.08-.86,2.38,2.38,0,0,1,1.13-.25,3.54,3.54,0,0,1,1.82.57l-1,2a2.07,2.07,0,0,0-1.22-.45c-1.2,0-1.8.91-1.8,2.72v4.93h-2.19Z"/><path class="cls-1" d="M147.43,52.84l-1.81,1c-.29-.58-.64-.88-1.07-.88a.73.73,0,0,0-.51.2.67.67,0,0,0-.22.52c0,.36.43.72,1.27,1.08a7.28,7.28,0,0,1,2.35,1.39,2.34,2.34,0,0,1,.61,1.71,3,3,0,0,1-1,2.3,3.42,3.42,0,0,1-2.38.88,3.47,3.47,0,0,1-3.39-2.33l1.88-.87a4.83,4.83,0,0,0,.59.87,1.41,1.41,0,0,0,1,.37q1.11,0,1.11-1c0-.39-.28-.75-.86-1.09l-.66-.32-.67-.33a4.11,4.11,0,0,1-1.35-.93,2.34,2.34,0,0,1-.5-1.54,2.71,2.71,0,0,1,.85-2.05,3,3,0,0,1,2.11-.81A2.87,2.87,0,0,1,147.43,52.84Z"/></g></svg>